# Exported from ProBuilder
# http://www.procore3d.com/probuilder
# 12/4/2017 9:55:53 PM

mtllib ./HotelRoom.mtl
o HotelRoom

g pb-MergedObject-1962022
v -31.18826 8.226801 27.80664
v -31.18826 12.2268 27.80664
v -41.18826 12.2268 27.80664
v -41.18826 8.226801 27.80664
v -41.18826 8.226801 17.80664
v -41.18826 12.2268 17.80664
v -31.18826 12.2268 17.80664
v -31.18826 8.226801 17.80664
v -31.18826 8.226801 17.80664
v -31.18826 12.2268 17.80664
v -31.18826 12.2268 27.80664
v -31.18826 8.226801 27.80664
v -41.68826 8.226801 23.80664
v -41.18826 8.226801 23.80664
v -41.18826 11.2268 23.80664
v -41.68826 11.2268 23.80664
v -41.68826 11.2268 23.80664
v -41.18826 11.2268 23.80664
v -41.18826 11.2268 21.80664
v -41.68826 11.2268 21.80664
v -41.68826 11.2268 21.80664
v -41.18826 11.2268 21.80664
v -41.18826 8.226801 21.80664
v -41.68826 8.226801 21.80664
v -41.5931 8.226801 26.80664
v -41.18826 8.226801 26.80664
v -41.18826 11.2268 26.80664
v -41.5931 11.2268 26.80664
v -41.5931 11.2268 26.80664
v -41.18826 11.2268 26.80664
v -41.18826 11.2268 24.80762
v -41.5931 11.2268 24.80762
v -41.5931 11.2268 24.80762
v -41.18826 11.2268 24.80762
v -41.18826 8.226801 24.80762
v -41.5931 8.226801 24.80762
v -46.59311 7.726801 26.80664
v -46.59311 7.726801 24.80762
v -42.0931 7.726801 24.80762
v -42.0931 7.726801 26.80664
v -42.5931 7.951801 26.80664
v -42.5931 7.726801 26.80664
v -42.5931 7.726801 24.80762
v -42.5931 7.951801 24.80762
v -42.5931 7.726801 26.80664
v -42.0931 7.726801 26.80664
v -42.0931 7.726801 24.80762
v -42.5931 7.726801 24.80762
v -42.5931 7.726801 24.80762
v -42.0931 7.726801 24.80762
v -42.0931 7.951801 24.80762
v -42.5931 7.951801 24.80762
v -42.5931 7.951801 26.80664
v -42.0931 7.951801 26.80664
v -42.0931 7.726801 26.80664
v -42.5931 7.726801 26.80664
v -42.5931 7.951801 24.80762
v -42.0931 7.951801 24.80762
v -42.0931 7.951801 26.80664
v -42.5931 7.951801 26.80664
v -41.68826 8.226801 21.80664
v -41.18826 8.226801 21.80664
v -41.18826 8.226801 23.80664
v -41.68826 8.226801 23.80664
v -42.0931 8.176801 26.80664
v -42.0431 8.226801 26.80664
v -46.59311 8.226801 26.85664
v -42.0931 8.176801 26.80664
v -46.59311 8.226801 26.85664
v -46.59311 8.176801 26.80664
v -46.59311 8.176801 24.80762
v -46.59311 8.226801 24.75762
v -42.0431 8.226801 24.80762
v -46.59311 8.176801 24.80762
v -42.0431 8.226801 24.80762
v -42.0931 8.176801 24.80762
v -41.18826 12.2268 27.80664
v -31.18826 12.2268 27.80664
v -41.18826 12.2268 26.80664
v -41.18826 12.2268 24.80762
v -41.18826 12.2268 26.80664
v -31.18826 12.2268 27.80664
v -41.18826 12.2268 23.80664
v -41.18826 12.2268 24.80762
v -31.18826 12.2268 27.80664
v -41.18826 12.2268 23.80664
v -31.18826 12.2268 27.80664
v -31.18826 12.2268 17.80664
v -41.18826 12.2268 21.80664
v -41.18826 12.2268 21.80664
v -31.18826 12.2268 17.80664
v -41.18826 12.2268 17.80664
v -46.59311 8.226801 27.80664
v -41.5931 8.226801 27.80664
v -41.5931 11.2268 27.80664
v -46.59311 10.7268 27.80664
v -46.59311 12.2268 27.80664
v -46.59311 10.7268 27.80664
v -41.5931 11.2268 27.80664
v -41.5931 12.2268 27.80664
v -46.59311 12.2268 26.80664
v -46.59311 10.7268 26.80664
v -46.59311 10.7268 27.80664
v -46.59311 12.2268 27.80664
v -46.59311 8.276801 26.80664
v -46.59311 10.7268 27.80664
v -46.59311 10.7268 26.80664
v -46.59311 8.226801 27.80664
v -46.59311 8.226801 27.80664
v -46.59311 8.276801 26.80664
v -46.59311 8.226801 26.85664
v -46.59311 12.2268 24.80762
v -46.59311 10.7268 26.80664
v -46.59311 12.2268 26.80664
v -46.59311 10.7268 24.80762
v -46.59311 12.2268 24.30762
v -46.59311 10.7268 24.80762
v -46.59311 12.2268 24.80762
v -46.59311 10.7268 24.30762
v -46.59311 10.7268 24.80762
v -46.59311 10.7268 24.30762
v -46.59311 8.276801 24.80762
v -46.59311 8.226801 24.30762
v -46.59311 8.226801 24.75762
v -46.59311 8.276801 24.80762
v -46.59311 8.226801 24.30762
v -46.59311 10.7268 24.30762
v -41.5931 11.2268 24.30762
v -41.5931 8.226801 24.30762
v -46.59311 8.226801 24.30762
v -41.5931 12.2268 24.30762
v -41.5931 11.2268 24.30762
v -46.59311 10.7268 24.30762
v -46.59311 12.2268 24.30762
v -41.5931 11.2268 24.30762
v -41.5931 11.2268 24.80762
v -41.5931 8.226801 24.80762
v -41.5931 8.226801 24.30762
v -41.5931 12.2268 24.80762
v -41.5931 11.2268 24.80762
v -41.5931 11.2268 24.30762
v -41.5931 12.2268 24.30762
v -41.5931 12.2268 26.80664
v -41.5931 11.2268 24.80762
v -41.5931 12.2268 24.80762
v -41.5931 11.2268 26.80664
v -41.5931 12.2268 27.80664
v -41.5931 11.2268 26.80664
v -41.5931 12.2268 26.80664
v -41.5931 11.2268 27.80664
v -41.5931 8.226801 27.80664
v -41.5931 11.2268 26.80664
v -41.5931 11.2268 27.80664
v -41.5931 8.226801 26.80664
v -46.59311 12.2268 24.30762
v -46.59311 12.2268 24.80762
v -41.5931 12.2268 24.80762
v -41.5931 12.2268 24.30762
v -46.59311 12.2268 26.80664
v -41.5931 12.2268 24.80762
v -46.59311 12.2268 24.80762
v -41.5931 12.2268 26.80664
v -41.5931 12.2268 27.80664
v -41.5931 12.2268 26.80664
v -46.59311 12.2268 26.80664
v -46.59311 12.2268 27.80664
v -46.68826 11.2268 23.80664
v -46.68826 11.2268 21.80664
v -46.68826 8.226801 23.80664
v -46.68826 8.226801 21.80664
v -46.68826 12.2268 21.80664
v -46.68826 11.2268 21.80664
v -46.68826 11.2268 23.80664
v -46.68826 12.2268 23.80664
v -46.68826 8.226801 17.80664
v -46.68826 8.226801 21.80664
v -46.68826 11.2268 21.80664
v -46.68826 11.2268 17.80664
v -46.68826 12.2268 17.80664
v -46.68826 11.2268 17.80664
v -46.68826 11.2268 21.80664
v -46.68826 12.2268 21.80664
v -46.68826 11.2268 17.80664
v -41.68826 11.2268 17.80664
v -41.68826 8.226801 17.80664
v -46.68826 8.226801 17.80664
v -41.68826 12.2268 17.80664
v -41.68826 11.2268 17.80664
v -46.68826 11.2268 17.80664
v -46.68826 12.2268 17.80664
v -41.68826 11.2268 17.80664
v -41.68826 11.2268 21.80664
v -41.68826 8.226801 21.80664
v -41.68826 8.226801 17.80664
v -41.68826 12.2268 21.80664
v -41.68826 11.2268 21.80664
v -41.68826 11.2268 17.80664
v -41.68826 12.2268 17.80664
v -41.68826 12.2268 23.80664
v -41.68826 11.2268 21.80664
v -41.68826 12.2268 21.80664
v -41.68826 11.2268 23.80664
v -46.68826 12.2268 23.80664
v -46.68826 11.2268 23.80664
v -41.68826 11.2268 23.80664
v -41.68826 12.2268 23.80664
v -46.68826 8.226801 23.80664
v -41.68826 11.2268 23.80664
v -46.68826 11.2268 23.80664
v -41.68826 8.226801 23.80664
v -46.68826 12.2268 23.80664
v -41.68826 12.2268 23.80664
v -41.68826 12.2268 21.80664
v -46.68826 12.2268 21.80664
v -46.68826 12.2268 17.80664
v -46.68826 12.2268 21.80664
v -41.68826 12.2268 21.80664
v -41.68826 12.2268 17.80664
v -41.18826 12.2268 21.80664
v -41.18826 12.2268 17.80664
v -41.18826 11.2268 21.80664
v -41.18826 11.2268 21.80664
v -41.18826 12.2268 17.80664
v -41.18826 8.226801 17.80664
v -41.18826 8.226801 21.80664
v -41.18826 11.2268 23.80664
v -41.18826 12.2268 21.80664
v -41.18826 11.2268 21.80664
v -41.18826 12.2268 23.80664
v -41.18826 11.2268 23.80664
v -41.18826 12.2268 24.80762
v -41.18826 12.2268 23.80664
v -41.18826 11.2268 24.80762
v -41.18826 11.2268 24.80762
v -41.18826 11.2268 23.80664
v -41.18826 8.226801 23.80664
v -41.18826 8.226801 24.80762
v -41.18826 11.2268 26.80664
v -41.18826 12.2268 24.80762
v -41.18826 11.2268 24.80762
v -41.18826 12.2268 26.80664
v -41.18826 11.2268 26.80664
v -41.18826 12.2268 27.80664
v -41.18826 12.2268 26.80664
v -41.18826 8.226801 27.80664
v -41.18826 12.2268 27.80664
v -41.18826 11.2268 26.80664
v -41.18826 8.226801 26.80664
v -46.68826 8.226801 21.80664
v -41.68826 8.226801 21.80664
v -41.68826 8.226801 23.80664
v -46.68826 8.226801 23.80664
v -41.68826 8.226801 17.80664
v -41.68826 8.226801 21.80664
v -46.68826 8.226801 21.80664
v -46.68826 8.226801 17.80664
v -31.18826 8.226801 17.80664
v -41.18826 8.226801 21.80664
v -41.18826 8.226801 17.80664
v -31.18826 8.226801 17.80664
v -41.18826 8.226801 23.80664
v -41.18826 8.226801 21.80664
v -31.18826 8.226801 27.80664
v -41.18826 8.226801 24.80762
v -41.18826 8.226801 23.80664
v -31.18826 8.226801 27.80664
v -41.18826 8.226801 26.80664
v -41.18826 8.226801 24.80762
v -31.18826 8.226801 27.80664
v -41.18826 8.226801 27.80664
v -41.5931 8.226801 24.80762
v -41.18826 8.226801 24.80762
v -41.18826 8.226801 26.80664
v -41.5931 8.226801 26.80664
v -42.0931 8.226801 24.85762
v -41.5931 8.226801 24.80762
v -41.5931 8.226801 26.80664
v -42.0931 8.226801 24.85762
v -42.0431 8.226801 24.80762
v -41.5931 8.226801 24.80762
v -42.0931 8.226801 26.75664
v -42.0431 8.226801 26.80664
v -42.0931 8.226801 26.75664
v -41.5931 8.226801 26.80664
v -42.0931 8.176801 26.80664
v -42.0931 7.951801 26.80664
v -42.0931 8.226801 26.75664
v -42.0931 8.226801 24.85762
v -42.0931 8.226801 26.75664
v -42.0931 7.951801 26.80664
v -42.0931 7.951801 24.80762
v -42.0931 7.951801 24.80762
v -42.0931 8.176801 24.80762
v -42.0931 8.226801 24.85762
v -42.0431 8.226801 24.80762
v -46.59311 8.226801 24.75762
v -46.59311 8.226801 24.30762
v -41.5931 8.226801 24.30762
v -42.0431 8.226801 24.80762
v -41.5931 8.226801 24.30762
v -41.5931 8.226801 24.80762
v -41.5931 8.226801 27.80664
v -42.0431 8.226801 26.80664
v -41.5931 8.226801 26.80664
v -41.5931 8.226801 27.80664
v -46.59311 8.226801 27.80664
v -42.0431 8.226801 26.80664
v -46.59311 8.226801 26.85664
v -46.59311 8.176801 26.80664
v -46.59311 8.226801 26.85664
v -46.59311 8.226801 26.80664
v -46.59311 8.226801 26.75664
v -46.59311 8.276801 26.80664
v -46.59311 8.226801 26.75664
v -46.59311 8.226801 26.80664
v -46.59311 8.226801 26.85664
v -42.0931 8.226801 26.75664
v -42.0431 8.226801 26.80664
v -42.0931 8.176801 26.80664
v -42.0431 8.226801 24.80762
v -42.0931 8.226801 24.85762
v -42.0931 8.176801 24.80762
v -46.59311 8.226801 24.75762
v -46.59311 8.176801 24.80762
v -46.59311 8.226801 24.80762
v -46.59311 8.276801 24.80762
v -46.59311 8.226801 24.75762
v -46.59311 8.226801 24.80762
v -46.59311 8.226801 24.85762
v -46.59311 8.276801 24.80762
v -46.59311 8.226801 24.80762
v -46.59311 8.176801 24.80762
v -46.59311 7.726801 24.80762
v -42.0931 7.951801 24.80762
v -42.0931 7.726801 24.80762
v -46.59311 8.176801 24.80762
v -46.59311 8.176801 24.80762
v -42.0931 8.176801 24.80762
v -42.0931 7.951801 24.80762
v -42.0931 8.176801 26.80664
v -46.59311 8.176801 26.80664
v -42.0931 7.951801 26.80664
v -46.59311 7.726801 26.80664
v -42.0931 7.951801 26.80664
v -46.59311 7.726801 26.80664
v -42.0931 7.726801 26.80664

vn 0 0 -1
vn 0 0 -1
vn 0 0 -1
vn 0 0 -1
vn 0 0 1
vn 0 0 1
vn 0 0 1
vn 0 0 1
vn -1 0 0
vn -1 0 0
vn -1 0 0
vn -1 0 0
vn 0 0 -1
vn 0 0 -1
vn 0 0 -1
vn 0 0 -1
vn 0 -1 0
vn 0 -1 0
vn 0 -1 0
vn 0 -1 0
vn 0 0 1
vn 0 0 1
vn 0 0 1
vn 0 0 1
vn 0 0 -1
vn 0 0 -1
vn 0 0 -1
vn 0 0 -1
vn 0 -0.9999999 0
vn 0 -0.9999999 0
vn 0 -0.9999999 0
vn 0 -0.9999999 0
vn 0 0 1
vn 0 0 1
vn 0 0 1
vn 0 0 1
vn 0 1 0
vn 0 1 0
vn 0 0 0
vn 0 0 0
vn -1 0 0
vn -1 0 0
vn -1 0 0
vn -1 0 0
vn 0 -1 0
vn 0 0 0
vn 0 0 0
vn 0 -1 0
vn 0 0 -1
vn 0 0 -1
vn 0 0 -1
vn 0 0 -1
vn 0 0 1
vn 0 0 1
vn 0 0 1
vn 0 0 1
vn 0 1 0
vn 0 1 0
vn 0 1 0
vn 0 1 0
vn 0 1 0
vn 0 1 0
vn 0 1 0
vn 0 1 0
vn -0.005493755 0.3590437 -0.8534964
vn -0.01098751 0.0109873 -0.9998794
vn -0.005493755 0.3590437 -0.8534964
vn -0.005493755 0.3590437 -0.8534964
vn -0.005493755 0.3590437 -0.8534964
vn 0 0.7071 -0.7071135
vn -0.003885134 0.3535461 0.8535393
vn -0.007770268 0.7070922 0.7070787
vn -0.003885134 0.3535461 0.8535393
vn -0.003885134 0.3535461 0.8535393
vn -0.003885134 0.3535461 0.8535393
vn 0 0 1
vn 0 -1 0
vn 0 -1 0
vn 0 -1 0
vn 0 -1 0
vn 0 -1 0
vn 0 -1 0
vn 0 -1 0
vn 0 -1 0
vn 0 -1 0
vn 0 -1 0
vn 0 -1 0
vn 0 -1 0
vn 0 -1 0
vn 0 -1 0
vn 0 -1 0
vn 0 -1 0
vn 0 0 -1
vn 0 0 -1
vn 0 0 -1
vn 0 0 -1
vn 0 0 -1
vn 0 0 -1
vn 0 0 -1
vn 0 0 -1
vn 1 0 0
vn 1 0 0
vn 1 0 0
vn 1 0 0
vn 1 0 0
vn 1 0 0
vn 1 0 0
vn 1 0 0
vn 1 0 0
vn 1 0 0
vn 1 0 0
vn 1 0 0
vn 1 0 0
vn 1 0 0
vn 1 0 0
vn 1 0 0
vn 1 0 0
vn 1 0 0
vn 1 0 0
vn 1 0 0
vn 1 0 0
vn 1 0 0
vn 1 0 0
vn 1 0 0
vn 1 0 0
vn 1 0 0
vn 0 0 1
vn 0 0 1
vn 0 0 1
vn 0 0 1
vn 0 0 1
vn 0 0 1
vn 0 0 1
vn 0 0 1
vn -1 0 0
vn -1 0 0
vn -1 0 0
vn -1 0 0
vn -1 0 0
vn -1 0 0
vn -1 0 0
vn -1 0 0
vn -1 0 0
vn -1 0 0
vn -1 0 0
vn -1 0 0
vn -1 0 0
vn -1 0 0
vn -1 0 0
vn -1 0 0
vn -1 0 0
vn -1 0 0
vn -1 0 0
vn -1 0 0
vn 0 -1 0
vn 0 -1 0
vn 0 -1 0
vn 0 -1 0
vn 0 -1 0
vn 0 -1 0
vn 0 -1 0
vn 0 -1 0
vn 0 -1 0
vn 0 -1 0
vn 0 -1 0
vn 0 -1 0
vn 1 0 0
vn 1 0 0
vn 1 0 0
vn 1 0 0
vn 1 0 0
vn 1 0 0
vn 1 0 0
vn 1 0 0
vn 1 0 0
vn 1 0 0
vn 1 0 0
vn 1 0 0
vn 1 0 0
vn 1 0 0
vn 1 0 0
vn 1 0 0
vn 0 0 1
vn 0 0 1
vn 0 0 1
vn 0 0 1
vn 0 0 1
vn 0 0 1
vn 0 0 1
vn 0 0 1
vn -1 0 0
vn -1 0 0
vn -1 0 0
vn -1 0 0
vn -1 0 0
vn -1 0 0
vn -1 0 0
vn -1 0 0
vn -1 0 0
vn -1 0 0
vn -1 0 0
vn -1 0 0
vn 0 0 -1
vn 0 0 -1
vn 0 0 -1
vn 0 0 -1
vn 0 0 -1
vn 0 0 -1
vn 0 0 -1
vn 0 0 -1
vn 0 -1 0
vn 0 -1 0
vn 0 -1 0
vn 0 -1 0
vn 0 -1 0
vn 0 -1 0
vn 0 -1 0
vn 0 -1 0
vn 1 0 0
vn 1 0 0
vn 1 0 0
vn 1 0 0
vn 1 0 0
vn 1 0 0
vn 1 0 0
vn 1 0 0
vn 1 0 0
vn 1 0 0
vn 1 0 0
vn 1 0 0
vn 1 0 0
vn 1 0 0
vn 1 0 0
vn 1 0 0
vn 1 0 0
vn 1 0 0
vn 1 0 0
vn 1 0 0
vn 1 0 0
vn 1 0 0
vn 1 0 0
vn 1 0 0
vn 1 0 0
vn 1 0 0
vn 1 0 0
vn 1 0 0
vn 1 0 0
vn 1 0 0
vn 0 1 0
vn 0 1 0
vn 0 1 0
vn 0 1 0
vn 0 1 0
vn 0 1 0
vn 0 1 0
vn 0 1 0
vn 0 1 0
vn 0 1 0
vn 0 1 0
vn 0 1 0
vn 0 1 0
vn 0 1 0
vn 0 1 0
vn 0 1 0
vn 0 1 0
vn 0 1 0
vn 0 0.9999999 0
vn 0 1 0
vn 0 1 0
vn 0 1 0
vn 0 1 0
vn 0 1 0
vn 0 0.9999999 0
vn 0 1 0
vn 0 1 0
vn 0 1 0
vn 0 1 0
vn 0 1 0
vn 0 1 0
vn 0 1 0
vn 0 1 0
vn 0 1 0
vn 0 1 0
vn 0 1 0
vn -1 0 0
vn -1 0 0
vn -1 0 0
vn -1 0 0
vn -1 0 0
vn -1 0 0
vn -1 0 0
vn -1 0 0
vn -1 0 0
vn -1 0 0
vn 0 1 0
vn 0 1 0
vn 0 1 0
vn 0 1 0
vn 0 1 0
vn 0 1 0
vn 0 1 0
vn 0 1 0
vn 0 1 0
vn 0 1 0
vn 0 1 0
vn 0 1 0
vn 0 1 0
vn 0 1 0
vn 0.9999999 0 0
vn 0.9999999 0 0
vn 0.9999999 0 0
vn 0.9999999 0 0
vn 0.9999999 0 0
vn 0.9999999 0 0
vn 0.9999999 0 0
vn 0.9999999 0 0
vn -0.577354 0.577343 0.577354
vn -0.577354 0.577343 0.577354
vn -0.577354 0.577343 0.577354
vn -0.577354 0.577343 -0.577354
vn -0.577354 0.577343 -0.577354
vn -0.577354 0.577343 -0.577354
vn 0.9999999 0 0
vn 1 0 0
vn 1 0 0
vn 1 0 0
vn 0.9999999 0 0
vn 1 0 0
vn 1 0 0
vn 1 0 0
vn 1 0 0
vn 1 0 0
vn 0 0 1
vn 0 0 1
vn 0 0 1
vn 0 0 1
vn 0 0 1
vn 0 0 1
vn 0 0 1
vn 0 0 -1
vn 0 0 -1
vn 0 0 -1
vn 0 0 -1
vn 0 0 -1
vn 0 0 -1
vn 0 0 -1

vt 0 0
vt 0 4
vt 10 4
vt 10 0
vt -10 0
vt -10 4
vt 0 4
vt 0 0
vt -10 0
vt -10 4
vt 0 4
vt 0 0
vt 10.5 0
vt 10 0
vt 10 3
vt 10.5 3
vt -10.5 -4
vt -10 -4
vt -10 -6
vt -10.5 -6
vt -10.5 3
vt -10 3
vt -10 0
vt -10.5 0
vt 10.40485 0
vt 10 0
vt 10 3
vt 10.40485 3
vt -10.40485 -1
vt -10 -1
vt -10 -2.999013
vt -10.40485 -2.999013
vt -10.40485 3
vt -10 3
vt -10 0
vt -10.40485 0
vt 15.40485 -1
vt 15.40485 -2.999013
vt 10.90485 -2.999013
vt 10.90485 -1
vt -1 -0.275
vt -1 -0.5
vt -2.999013 -0.5
vt -2.999013 -0.275
vt -11.40485 -1
vt -10.90485 -1
vt -10.90485 -2.999013
vt -11.40485 -2.999013
vt 11.40485 -0.5
vt 10.90485 -0.5
vt 10.90485 -0.275
vt 11.40485 -0.275
vt -11.40485 -0.275
vt -10.90485 -0.275
vt -10.90485 -0.5
vt -11.40485 -0.5
vt 11.40485 -2.999013
vt 10.90485 -2.999013
vt 10.90485 -1
vt 11.40485 -1
vt 10.5 -6
vt 10 -6
vt 10 -4
vt 10.5 -4
vt 10.90474 -0.657753
vt 10.85419 -0.6227893
vt 15.40392 -0.5520808
vt 10.90474 -0.657753
vt 15.40392 -0.5520808
vt 15.40447 -0.6227893
vt -15.43687 -0.0189066
vt -15.43742 0.03163974
vt -10.88715 0.03163974
vt -15.43687 -0.0189066
vt -10.88715 0.03163974
vt -10.93714 -0.01836328
vt -10 0
vt 0 0
vt -10 -1
vt -10 -2.999013
vt -10 -1
vt 0 0
vt -10 -4
vt -10 -2.999013
vt 0 0
vt -10 -4
vt 0 0
vt 0 -10
vt -10 -6
vt -10 -6
vt 0 -10
vt -10 -10
vt 15.40485 0
vt 10.40485 0
vt 10.40485 3
vt 15.40485 2.5
vt 15.40485 4
vt 15.40485 2.5
vt 10.40485 3
vt 10.40485 4
vt 1 4
vt 1 2.5
vt -1.192093E-07 2.5
vt -1.192093E-07 4
vt 1 0.05
vt -1.192093E-07 2.5
vt 1 2.5
vt -1.192093E-07 0
vt -1.192093E-07 0
vt 1 0.05
vt 0.95 0
vt 2.999013 4
vt 1 2.5
vt 1 4
vt 2.999013 2.5
vt 3.499013 4
vt 2.999013 2.5
vt 2.999013 4
vt 3.499013 2.5
vt 2.999013 2.5
vt 3.499013 2.5
vt 2.999013 0.05
vt 3.499013 0
vt 3.049013 0
vt 2.999013 0.05
vt 3.499013 0
vt -15.40485 2.5
vt -10.40485 3
vt -10.40485 0
vt -15.40485 0
vt -10.40485 4
vt -10.40485 3
vt -15.40485 2.5
vt -15.40485 4
vt -3.499013 3
vt -2.999013 3
vt -2.999013 0
vt -3.499013 0
vt -2.999013 4
vt -2.999013 3
vt -3.499013 3
vt -3.499013 4
vt -1 4
vt -2.999013 3
vt -2.999013 4
vt -1 3
vt 1.192093E-07 4
vt -1 3
vt -1 4
vt 1.192093E-07 3
vt 1.192093E-07 0
vt -1 3
vt 1.192093E-07 3
vt -1 0
vt -15.40485 -3.499013
vt -15.40485 -2.999013
vt -10.40485 -2.999013
vt -10.40485 -3.499013
vt -15.40485 -1
vt -10.40485 -2.999013
vt -15.40485 -2.999013
vt -10.40485 -1
vt -10.40485 1.192093E-07
vt -10.40485 -1
vt -15.40485 -1
vt -15.40485 1.192093E-07
vt 4 3
vt 6 3
vt 4 0
vt 6 0
vt 6 4
vt 6 3
vt 4 3
vt 4 4
vt 10 0
vt 6 0
vt 6 3
vt 10 3
vt 10 4
vt 10 3
vt 6 3
vt 6 4
vt -15.5 3
vt -10.5 3
vt -10.5 0
vt -15.5 0
vt -10.5 4
vt -10.5 3
vt -15.5 3
vt -15.5 4
vt -10 3
vt -6 3
vt -6 0
vt -10 0
vt -6 4
vt -6 3
vt -10 3
vt -10 4
vt -4 4
vt -6 3
vt -6 4
vt -4 3
vt 15.5 4
vt 15.5 3
vt 10.5 3
vt 10.5 4
vt 15.5 0
vt 10.5 3
vt 15.5 3
vt 10.5 0
vt -15.5 -4
vt -10.5 -4
vt -10.5 -6
vt -15.5 -6
vt -15.5 -10
vt -15.5 -6
vt -10.5 -6
vt -10.5 -10
vt 6 4
vt 10 4
vt 6 3
vt 6 3
vt 10 4
vt 10 0
vt 6 0
vt 4 3
vt 6 4
vt 6 3
vt 4 4
vt 4 3
vt 2.999013 4
vt 4 4
vt 2.999013 3
vt 2.999013 3
vt 4 3
vt 4 0
vt 2.999013 0
vt 1 3
vt 2.999013 4
vt 2.999013 3
vt 1 4
vt 1 3
vt 0 4
vt 1 4
vt 0 0
vt 0 4
vt 1 3
vt 1 0
vt 15.5 -6
vt 10.5 -6
vt 10.5 -4
vt 15.5 -4
vt 10.5 -10
vt 10.5 -6
vt 15.5 -6
vt 15.5 -10
vt 0 -10
vt 10 -6
vt 10 -10
vt 0 -10
vt 10 -4
vt 10 -6
vt 0 0
vt 10 -2.999013
vt 10 -4
vt 0 0
vt 10 -1
vt 10 -2.999013
vt 0 0
vt 10 0
vt 10.40485 -2.999013
vt 10 -2.999013
vt 10 -1
vt 10.40485 -1
vt 10.90485 -2.949013
vt 10.40485 -2.999013
vt 10.40485 -1
vt 10.90485 -2.949013
vt 10.85485 -2.999013
vt 10.40485 -2.999013
vt 10.90485 -1.05
vt 10.85485 -1
vt 10.90485 -1.05
vt 10.40485 -1
vt -1 -0.05
vt -1 -0.275
vt -1.05 0
vt -2.949013 0
vt -1.05 0
vt -1 -0.275
vt -2.999013 -0.275
vt -2.999013 -0.275
vt -2.999013 -0.05
vt -2.949013 0
vt 10.85485 -2.999013
vt 15.40485 -3.049013
vt 15.40485 -3.499013
vt 10.40485 -3.499013
vt 10.85485 -2.999013
vt 10.40485 -3.499013
vt 10.40485 -2.999013
vt 10.40485 1.192093E-07
vt 10.85485 -1
vt 10.40485 -1
vt 10.40485 1.192093E-07
vt 15.40485 1.192093E-07
vt 10.85485 -1
vt 15.40485 -0.95
vt 1 -0.05
vt 0.95 0
vt 1 0
vt 1.05 0
vt 1 0.05
vt 1.05 0
vt 1 0
vt 0.95 0
vt -8.45337 -4.023216
vt -8.382659 -4.023216
vt -8.418015 -4.084453
vt 5.554936 -5.655812
vt 5.625647 -5.655812
vt 5.590292 -5.717049
vt 3.049013 0
vt 2.999013 -0.05
vt 2.999014 0
vt 2.999013 0.05
vt 3.049013 0
vt 2.999014 0
vt 2.949013 0
vt 2.999013 0.05
vt 2.999014 0
vt 2.999013 -0.05
vt -15.40485 -0.5
vt -10.90485 -0.275
vt -10.90485 -0.5
vt -15.40485 -0.05
vt -15.40485 -0.05
vt -10.90485 -0.05
vt -10.90485 -0.275
vt 10.90485 -0.05
vt 15.40485 -0.05
vt 10.90485 -0.275
vt 15.40485 -0.5
vt 10.90485 -0.275
vt 15.40485 -0.5
vt 10.90485 -0.5

g pb-MergedObject-1962022_0
usemtl mat_cream_wall
f 4/4/4 3/3/3 2/2/2 1/1/1
f 8/8/8 7/7/7 6/6/6 5/5/5
f 12/12/12 11/11/11 10/10/10 9/9/9
f 89/89/89 88/88/88 87/87/87 86/86/86
f 96/96/96 95/95/95 94/94/94 93/93/93
f 100/100/100 99/99/99 98/98/98 97/97/97
f 104/104/104 103/103/103 102/102/102 101/101/101
f 108/108/108 105/105/105 107/107/107 106/106/106
f 115/115/115 112/112/112 114/114/114 113/113/113
f 119/119/119 116/116/116 118/118/118 117/117/117
f 122/122/122 123/123/123 121/121/121 120/120/120
f 130/130/130 129/129/129 128/128/128 127/127/127
f 134/134/134 133/133/133 132/132/132 131/131/131
f 138/138/138 137/137/137 136/136/136 135/135/135
f 142/142/142 141/141/141 140/140/140 139/139/139
f 146/146/146 143/143/143 145/145/145 144/144/144
f 150/150/150 147/147/147 149/149/149 148/148/148
f 154/154/154 151/151/151 153/153/153 152/152/152
f 158/158/158 157/157/157 156/156/156 155/155/155
f 162/162/162 159/159/159 161/161/161 160/160/160
f 166/166/166 165/165/165 164/164/164 163/163/163
f 169/169/169 170/170/170 168/168/168 167/167/167
f 174/174/174 173/173/173 172/172/172 171/171/171
f 178/178/178 177/177/177 176/176/176 175/175/175
f 182/182/182 181/181/181 180/180/180 179/179/179
f 186/186/186 185/185/185 184/184/184 183/183/183
f 190/190/190 189/189/189 188/188/188 187/187/187
f 194/194/194 193/193/193 192/192/192 191/191/191
f 198/198/198 197/197/197 196/196/196 195/195/195
f 202/202/202 199/199/199 201/201/201 200/200/200
f 206/206/206 205/205/205 204/204/204 203/203/203
f 210/210/210 207/207/207 209/209/209 208/208/208
f 214/214/214 213/213/213 212/212/212 211/211/211
f 218/218/218 217/217/217 216/216/216 215/215/215
f 225/225/225 224/224/224 223/223/223 222/222/222
f 229/229/229 226/226/226 228/228/228 227/227/227
f 233/233/233 230/230/230 232/232/232 231/231/231
f 237/237/237 236/236/236 235/235/235 234/234/234
f 241/241/241 238/238/238 240/240/240 239/239/239
f 248/248/248 247/247/247 246/246/246 245/245/245
f 252/252/252 251/251/251 250/250/250 249/249/249
f 256/256/256 255/255/255 254/254/254 253/253/253

g pb-MergedObject-1962022_1
usemtl mat_wooden_floor
f 16/16/16 15/15/15 14/14/14 13/13/13
f 20/20/20 19/19/19 18/18/18 17/17/17
f 24/24/24 23/23/23 22/22/22 21/21/21
f 28/28/28 27/27/27 26/26/26 25/25/25
f 32/32/32 31/31/31 30/30/30 29/29/29
f 36/36/36 35/35/35 34/34/34 33/33/33
f 40/40/40 39/39/39 38/38/38 37/37/37
f 44/44/44 43/43/43 42/42/42 41/41/41
f 48/48/48 47/47/47 46/46/46 45/45/45
f 52/52/52 51/51/51 50/50/50 49/49/49
f 56/56/56 55/55/55 54/54/54 53/53/53
f 60/60/60 59/59/59 58/58/58 57/57/57
f 263/263/263 260/260/260 262/262/262 261/261/261
f 270/270/270 269/269/269 268/268/268 267/267/267
f 274/274/274 273/273/273 272/272/272 271/271/271
f 281/281/281 277/277/277 276/276/276 275/275/275
f 291/291/291 290/290/290 289/289/289 288/288/288

g pb-MergedObject-1962022_2
usemtl floor
f 64/64/64 63/63/63 62/62/62 61/61/61

g pb-MergedObject-1962022_3
usemtl Default_Prototype
f 298/298/298 297/297/297 296/296/296 295/295/295
f 307/307/307 308/308/308 306/306/306 305/305/305
f 312/312/312 311/311/311 310/310/310 309/309/309
f 316/316/316 315/315/315 314/314/314 313/313/313
f 332/332/332 331/331/331 330/330/330 329/329/329
f 336/336/336 333/333/333 335/335/335 334/334/334
f 342/342/342 343/343/343 341/341/341 340/340/340

g pb-MergedObject-1962022_4
usemtl Default_Prototype
f 67/67/67 66/66/66 65/65/65
f 70/70/70 69/69/69 68/68/68
f 73/73/73 72/72/72 71/71/71
f 76/76/76 75/75/75 74/74/74
f 301/301/301 300/300/300 299/299/299
f 304/304/304 303/303/303 302/302/302
f 319/319/319 318/318/318 317/317/317
f 322/322/322 321/321/321 320/320/320
f 325/325/325 324/324/324 323/323/323
f 328/328/328 327/327/327 326/326/326
f 339/339/339 338/338/338 337/337/337
f 346/346/346 345/345/345 344/344/344

g pb-MergedObject-1962022_5
usemtl mat_cream_wall
f 79/79/79 78/78/78 77/77/77
f 82/82/82 81/81/81 80/80/80
f 85/85/85 84/84/84 83/83/83
f 92/92/92 91/91/91 90/90/90
f 111/111/111 110/110/110 109/109/109
f 126/126/126 125/125/125 124/124/124
f 221/221/221 220/220/220 219/219/219
f 244/244/244 243/243/243 242/242/242

g pb-MergedObject-1962022_6
usemtl mat_wooden_floor
f 259/259/259 258/258/258 257/257/257
f 266/266/266 265/265/265 264/264/264
f 280/280/280 279/279/279 278/278/278
f 284/284/284 283/283/283 282/282/282
f 287/287/287 286/286/286 285/285/285
f 294/294/294 293/293/293 292/292/292

